<?xml version="1.0" standalone="no"?>
<!DOCTYPE svg PUBLIC "-//W3C//DTD SVG 20010904//EN"
 "http://www.w3.org/TR/2001/REC-SVG-20010904/DTD/svg10.dtd">
<svg version="1.0" xmlns="http://www.w3.org/2000/svg"
 width="200.000000pt" height="181.000000pt" viewBox="0 0 200.000000 181.000000"
 preserveAspectRatio="xMidYMid meet">

<g transform="translate(0.000000,181.000000) scale(0.100000,-0.100000)"
fill="#000000" stroke="none">
<path d="M1075 1640 c-111 -22 -123 -29 -588 -330 -323 -208 -323 -207 -321
-344 1 -75 7 -108 34 -186 55 -161 143 -333 271 -528 55 -85 125 -107 251 -81
310 64 910 444 1071 679 40 58 50 120 30 184 -54 169 -329 506 -466 569 -97
45 -183 57 -282 37z m-465 -690 l0 -160 71 0 c67 0 70 -1 67 -22 -3 -22 -7
-23 -98 -23 l-95 0 -3 183 -2 182 30 0 30 0 0 -160z m238 -22 l-3 -183 -25 0
-25 0 -3 183 -2 182 30 0 30 0 -2 -182z m188 57 l64 -120 0 123 0 122 30 0 30
0 -2 -182 -3 -183 -25 0 c-22 0 -34 16 -92 125 l-67 125 -3 -125 -3 -125 -25
0 -25 0 -3 170 c-1 93 0 175 3 183 3 8 16 12 31 10 22 -3 36 -21 90 -123z
m381 -45 c29 -91 53 -173 53 -182 0 -12 -8 -18 -24 -18 -20 0 -27 8 -38 43
l-15 42 -55 3 -56 3 -14 -43 c-15 -43 -40 -60 -60 -40 -6 6 11 73 47 186 55
172 57 177 83 174 24 -3 29 -14 79 -168z"/>
<path d="M1317 950 c-10 -33 -17 -62 -17 -65 0 -3 18 -5 39 -5 l39 0 -18 61
c-10 34 -21 63 -23 65 -2 2 -11 -23 -20 -56z"/>
</g>
</svg>
